<?xml version="1.0" standalone="no"?>
<!DOCTYPE svg PUBLIC "-//W3C//DTD SVG 20010904//EN"
 "http://www.w3.org/TR/2001/REC-SVG-20010904/DTD/svg10.dtd">
<svg version="1.0" xmlns="http://www.w3.org/2000/svg"
 width="512.000000pt" height="512.000000pt" viewBox="0 0 512.000000 512.000000"
 preserveAspectRatio="xMidYMid meet">
<metadata>
Created by potrace 1.11, written by Peter Selinger 2001-2013
</metadata>
<g transform="translate(0.000000,512.000000) scale(0.100000,-0.100000)"
fill="#000000" stroke="none">
<path d="M2315 4924 c-338 -47 -584 -121 -837 -251 -597 -305 -1046 -863
-1213 -1507 -63 -244 -70 -302 -70 -606 0 -221 4 -295 18 -375 96 -530 323
-965 693 -1326 128 -125 203 -185 345 -279 277 -183 583 -303 934 -367 144
-26 606 -26 750 0 255 46 497 126 707 234 597 305 1046 863 1213 1507 63 244
70 302 70 606 0 304 -7 362 -70 606 -81 311 -248 644 -445 884 -317 388 -758
676 -1226 801 -227 60 -307 70 -584 74 -140 2 -268 1 -285 -1z m1175 -522 c0
-42 -573 -2729 -606 -2837 -147 -498 -436 -725 -918 -725 -139 0 -219 16 -308
61 -169 85 -261 249 -262 464 0 167 50 292 160 394 97 91 144 106 330 106 148
0 152 -1 209 -30 40 -20 69 -45 90 -73 29 -42 30 -48 30 -145 0 -56 -4 -115
-8 -130 l-8 -28 -32 27 c-155 131 -379 80 -432 -100 -31 -105 -15 -201 47
-271 49 -56 111 -80 200 -79 143 3 218 76 288 284 20 59 631 2811 625 2818 -6
7 -132 -67 -192 -113 -133 -101 -234 -252 -284 -425 -16 -56 -23 -113 -26
-225 -5 -142 -4 -154 20 -223 l25 -72 -62 0 c-123 0 -233 48 -286 124 -57 84
-76 240 -45 371 59 251 303 512 630 674 237 118 441 166 718 170 87 1 97 -1
97 -17z"/>
</g>
</svg>
